<svg width="61" height="60" viewBox="0 0 61 60" fill="none" xmlns="http://www.w3.org/2000/svg">
<path d="M10.5 17.5C10.5 16.837 10.7634 16.2011 11.2322 15.7322C11.7011 15.2634 12.337 15 13 15H48C48.663 15 49.2989 15.2634 49.7678 15.7322C50.2366 16.2011 50.5 16.837 50.5 17.5C50.5 18.163 50.2366 18.7989 49.7678 19.2678C49.2989 19.7366 48.663 20 48 20H13C12.337 20 11.7011 19.7366 11.2322 19.2678C10.7634 18.7989 10.5 18.163 10.5 17.5ZM10.5 30C10.5 29.337 10.7634 28.7011 11.2322 28.2322C11.7011 27.7634 12.337 27.5 13 27.5H48C48.663 27.5 49.2989 27.7634 49.7678 28.2322C50.2366 28.7011 50.5 29.337 50.5 30C50.5 30.663 50.2366 31.2989 49.7678 31.7678C49.2989 32.2366 48.663 32.5 48 32.5H13C12.337 32.5 11.7011 32.2366 11.2322 31.7678C10.7634 31.2989 10.5 30.663 10.5 30ZM10.5 42.5C10.5 41.837 10.7634 41.2011 11.2322 40.7322C11.7011 40.2634 12.337 40 13 40H48C48.663 40 49.2989 40.2634 49.7678 40.7322C50.2366 41.2011 50.5 41.837 50.5 42.5C50.5 43.163 50.2366 43.7989 49.7678 44.2678C49.2989 44.7366 48.663 45 48 45H13C12.337 45 11.7011 44.7366 11.2322 44.2678C10.7634 43.7989 10.5 43.163 10.5 42.5Z" fill="white"/>
</svg>
